<?xml version="1.0" encoding="UTF-8"?>
<!--Generator: Apple Native CoreSVG 232.5-->
<!DOCTYPE svg
PUBLIC "-//W3C//DTD SVG 1.1//EN"
       "http://www.w3.org/Graphics/SVG/1.1/DTD/svg11.dtd">
<svg version="1.1" xmlns="http://www.w3.org/2000/svg" xmlns:xlink="http://www.w3.org/1999/xlink" width="594.75" height="460.75">
 <g>
  <rect height="460.75" opacity="0" width="594.75" x="0" y="0"/>
  <path d="M504.75 386.25C497.5 434.75 477.75 460.75 428.5 460.75L166 460.75C117 460.75 97.25 435 90 386.25L54.25 148.25L540.25 148.25ZM358.75 207.75L297.25 268.75L236.25 208C232 204.5 228 202 222.75 202C211.75 202 202.5 210.75 202.5 221.5C202.5 227.25 205.25 231.75 208.75 235.25L269.25 296.5L208.75 357.5C205.25 361 202.5 365.5 202.5 371.25C202.5 382 211.75 391.5 222.75 391.5C228 391.5 232.75 388.75 236.5 385.25L297.25 324.25L358.25 385.25C362 388.5 366.5 391.5 372.25 391.5C383 391.5 392.25 382 392.25 371.25C392.25 365.25 389.5 361 386 357.25L325.5 296.5L386.25 235C390 230.75 392.5 227 392.5 221.5C392.5 210.5 383.5 201.5 372.25 201.5C367.25 201.5 363 204 358.75 207.75ZM594.75 45.25L594.75 69.5C594.75 97.5 580.5 114.25 552.25 114.25L42.5 114.25C14.25 114.25 0 97.5 0 69.5L0 45.25C0 17.25 15.75 0.5 42.5 0.5L552.25 0.5C580.5 0.5 594.75 17.25 594.75 45.25Z" fill="#ffffff" fill-opacity="0.85"/>
 </g>
</svg>
