<?xml version="1.0" encoding="utf-8"?>
<!-- Generator: Adobe Illustrator 27.0.0, SVG Export Plug-In . SVG Version: 6.00 Build 0)  -->
<svg version="1.1" id="图层_1" xmlns="http://www.w3.org/2000/svg" xmlns:xlink="http://www.w3.org/1999/xlink" x="0px" y="0px"
	 viewBox="0 0 674.8 467.8" style="enable-background:new 0 0 674.8 467.8;" xml:space="preserve">
<style type="text/css">
	.st0{fill:#FFFFFF;fill-opacity:0.85;}
</style>
<g>
	<path class="st0" d="M545.2,290.5c7.6,0,15.2-0.6,22.5-1.8v101.6c0,51.5-26.2,77.5-71,77.5H78.5C26.2,467.8,0,442,0,390.2v-205
		h394.3C417,246.6,476.2,290.5,545.2,290.5z M194.2,28.8l15.2,12.5C222,52,232.2,56,249.2,56H402c-11.5,22-18,46.9-18,73.2
		c0,7.9,0.6,15.7,1.9,23.2H0v-67c0-50.2,25.2-75.2,69-75.2h71.2C165,10.2,177.8,14.8,194.2,28.8z"/>
	<path class="st0" d="M534.2,258.8h21.5c7.8,0,13.8-4.8,15.5-12.5l6-24.8c3.5-1,7.5-2.5,11-4.2l21.5,13c6.8,4,13.8,4,19.8-1.8
		l14.8-15c5.2-5.8,6-13,1.5-20L633,171.8c2.2-3.5,3-6.5,4.5-10l24.5-6c8-1.8,12.8-7.8,12.8-15.5V119c0-7.5-5.2-13-12.8-15l-24.2-6
		c-1.8-4.2-3.2-7.5-4.5-10.2l13.5-22.2c4-6.5,3.2-14.8-2-19.8L629.5,31c-5.5-5.5-13-6.8-19.2-2.8l-22,13.8c-4-2-7.5-3-11-4.2l-6-25
		C569.5,5.2,563.5,0,555.8,0h-21.5c-7.8,0-14,5.5-15.5,12.8L513,37.2c-4.2,1.8-7.8,2.8-11.5,4.8L480,28.2c-6-3.8-14-2.8-19.5,2.8
		l-14.8,14.8c-5.2,5.5-6.8,13.2-2.8,19.8l13.8,22.2c-1.2,2.8-2.8,6.5-4.2,10.2l-24.5,6c-7.5,2-12.5,7.8-12.5,15v21.2
		c0,7.8,5,13.8,12.5,15.5l24.8,6c1.5,3.5,2.8,6.5,4.2,10l-12.8,22c-4,6.8-3.5,14.2,1.8,19.8l14.5,15c5.5,5.8,13.2,5.8,19.8,1.8
		l21.8-13c4.2,2,7.8,3.2,11,4.2l5.8,24.8C520.2,253.8,526.5,258.8,534.2,258.8z M545.2,171.2c-23.5,0-41.8-18.5-41.8-41.8
		c0-22.8,18.2-41.5,41.8-41.8c22.5-0.5,41.5,19,41.5,41.8C586.8,152.8,567.8,171.2,545.2,171.2z"/>
</g>
</svg>
