<?xml version="1.0" encoding="utf-8"?>
<!-- Generator: Adobe Illustrator 27.0.0, SVG Export Plug-In . SVG Version: 6.00 Build 0)  -->
<svg version="1.1" id="图层_1" xmlns="http://www.w3.org/2000/svg" xmlns:xlink="http://www.w3.org/1999/xlink" x="0px" y="0px"
	 viewBox="0 0 617.2 580" style="enable-background:new 0 0 617.2 580;" xml:space="preserve">
<style type="text/css">
	.st0{fill-opacity:0;}
	.st1{fill:#FFFFFF;fill-opacity:0.85;}
</style>
<g>
	<rect class="st0" width="617.2" height="580"/>
	<path class="st1" d="M57.4,560.4c22.3,22.2,48.2,20.5,70.7-5.2l237.8-270.8l-73.5-73.5l-271.5,237c-26,22.8-27.5,48.5-5.3,71
		L57.4,560.4z M501.9,345.1c10.8,10.2,23,11,33.2,0.8l75.2-74.8c9.8-9.8,9-22.8-1.5-33l-18-18.2c-9.8-9.5-16-11-26.5-10.2l-29.2,3.5
		l-18.8-18.8l8.5-35.2c4.2-17.2-2.2-35.5-20.5-53.7l-50.2-49.8c-69.5-69.2-197.5-77-269.2-5.5c-12,12-9.8,25.5-2,34
		c6,5.8,15.2,8.8,24,6c48.5-14.5,90.8-17.2,127.2,4.5l-19.2,50.5c-8.2,21.2-3.8,36.2,9.8,50l55.8,55.8c10.2,10.3,21,13.3,37.2,10
		l40.2-8.3l18.5,18.8l-2.8,29.2c-0.8,11,0.2,17.5,10.2,26.8L501.9,345.1z"/>
</g>
</svg>
