<?xml version="1.0" encoding="UTF-8"?>
<!--Generator: Apple Native CoreSVG 232.5-->
<!DOCTYPE svg
PUBLIC "-//W3C//DTD SVG 1.1//EN"
       "http://www.w3.org/Graphics/SVG/1.1/DTD/svg11.dtd">
<svg version="1.1" xmlns="http://www.w3.org/2000/svg" xmlns:xlink="http://www.w3.org/1999/xlink" width="567.75" height="460.75">
 <g>
  <rect height="460.75" opacity="0" width="567.75" x="0" y="0"/>
  <path d="M0 380C0 431.75 26.25 457.5 78.5 457.5L496.75 457.5C541.5 457.5 567.75 431.5 567.75 380L567.75 175L0 175ZM0 142.25L567.75 142.25L567.75 123.25C567.75 71.75 541.25 45.75 489.25 45.75L249.25 45.75C232.25 45.75 222 41.75 209.5 31L194.25 18.5C177.75 4.5 165 0 140.25 0L69 0C25.25 0 0 25 0 75.25Z" fill="#ffffff" fill-opacity="0.85"/>
 </g>
</svg>
