<?xml version="1.0" encoding="utf-8"?>
<!-- Generator: Adobe Illustrator 27.0.0, SVG Export Plug-In . SVG Version: 6.00 Build 0)  -->
<svg version="1.1" id="图层_1" xmlns="http://www.w3.org/2000/svg" xmlns:xlink="http://www.w3.org/1999/xlink" x="0px" y="0px"
	 viewBox="0 0 589.5 553" style="enable-background:new 0 0 589.5 553;" xml:space="preserve">
<style type="text/css">
	.st0{fill:#FFFFFF;fill-opacity:0.85;}
</style>
<g>
	<path class="st0" d="M489,173l86.2,107c11.2,13.5,14.2,24.8,14.2,47.5v148c0,51.5-26,77.5-78.5,77.5H78.5C26.2,553,0,527,0,475.5
		v-148c0-22.8,3.2-34,14.2-47.5l86.5-107c29.2-36,47-57,91.5-57h44.2v35.2h-47.2c-18.2,0-37.2,16-49.5,31.5L51.2,294.5
		c-9.8,12-7,17.8,7.5,17.8h153.8c14,0,20.8,10.8,20.8,21.8v1c0,30.8,24,63,61.5,63c37.8,0,61.8-32.2,61.8-63v-1
		c0-11,6.5-21.8,20.5-21.8h154.2c13.8,0,17.2-5,7.2-17.8l-88.8-111.8c-12.2-15.5-31.2-31.5-49.5-31.5H353V116h44.5
		C441.8,116,459.8,137,489,173z"/>
	<path class="st0" d="M294.8,309.2c5.2,0,9.5-1.5,14.5-6.5l84.5-81.5c3.8-3.8,5.8-8,5.8-13.2c0-10.2-7.8-17.5-18-17.5
		c-5,0-10.2,2-13.8,6L330,236.8l-17,17.8l1.8-37.5V19.2c0-10.5-9.2-19.2-20-19.2S275,8.8,275,19.2V217l1.5,37.5l-17-17.8l-37.8-40.2
		c-3.8-4-9-6-14-6c-10.2,0-17.8,7.2-17.8,17.5c0,5.2,2,9.5,5.8,13.2l84.5,81.5C285.2,307.8,289.8,309.2,294.8,309.2z"/>
</g>
</svg>
