<?xml version="1.0" encoding="UTF-8"?>
<!--Generator: Apple Native CoreSVG 232.5-->
<!DOCTYPE svg
PUBLIC "-//W3C//DTD SVG 1.1//EN"
       "http://www.w3.org/Graphics/SVG/1.1/DTD/svg11.dtd">
<svg version="1.1" xmlns="http://www.w3.org/2000/svg" xmlns:xlink="http://www.w3.org/1999/xlink" width="579.25" height="696.25">
 <g>
  <rect height="696.25" opacity="0" width="579.25" x="0" y="0"/>
  <path d="M366 181C366 207 381 221.75 407 221.75L545.25 221.75L545.25 459C545.25 511 519.5 537.5 467.75 537.5L458.25 537.5L458.25 386.25C458.5 350.25 447.5 321.5 424.5 298L291 162C265.5 135.75 237.75 124 198.75 124L155.25 124L155.25 109.75C155.25 60.75 181.25 33.25 232.75 33.25L366 33.25ZM421 59L526.75 166.75C535.75 175.5 541 182.5 542.5 190.5L411.75 190.5C401.75 190.5 397.75 186.25 397.75 176L397.5 43.5C405.25 44.5 412.5 50 421 59Z" fill="#ffffff" fill-opacity="0.85"/>
  <path d="M249.25 352L419.75 352C417 342.25 411.25 333.25 400.25 321.75L266.75 185.75C255.5 174.5 246 167 236.5 164.25L236.5 339.25C236.5 347.75 240.75 352 249.25 352ZM111.5 662.25L346.5 662.25C398.25 662.25 424 635.75 424 583.75L424 386.25L249.5 386.25C217.25 386.25 202.25 371 202.25 339L202.25 158L111.5 158C60 158 34 184.25 34 236.5L34 583.75C34 636 60 662.25 111.5 662.25Z" fill="#ffffff" fill-opacity="0.85"/>
 </g>
</svg>
