<?xml version="1.0" encoding="UTF-8"?>
<!--Generator: Apple Native CoreSVG 232.5-->
<!DOCTYPE svg
PUBLIC "-//W3C//DTD SVG 1.1//EN"
       "http://www.w3.org/Graphics/SVG/1.1/DTD/svg11.dtd">
<svg version="1.1" xmlns="http://www.w3.org/2000/svg" xmlns:xlink="http://www.w3.org/1999/xlink" width="381" height="530.75">
 <g>
  <rect height="530.75" opacity="0" width="381" x="0" y="0"/>
  <path d="M0 510.5C0 521.5 9 530.5 20 530.5C31.25 530.5 40.25 521.5 40.25 510.5L40.25 53.5C40.25 45.5 45.5 40.25 53 40.25L328 40.25C335.5 40.25 340.75 45.5 340.75 53.5L340.75 510.5C340.75 521.5 349.75 530.5 361 530.5C372 530.5 381 521.5 381 510.5L381 51C381 20.5 360.25 0 328.75 0L52.25 0C21 0 0 20.5 0 51Z" fill="#ffffff" fill-opacity="0.85"/>
  <path d="M69.5 516.25C69.5 521 73.5 523.5 78.25 521.5L156.75 486.75C163 484 165.5 482 165.5 475.5L165.5 115.25C165.5 109 163 106.75 157 104.25L78.25 69.25C73.5 67.25 69.5 69.75 69.5 74.75Z" fill="#ffffff" fill-opacity="0.85"/>
 </g>
</svg>
