<?xml version="1.0" encoding="UTF-8"?>
<!--Generator: Apple Native CoreSVG 232.5-->
<!DOCTYPE svg
PUBLIC "-//W3C//DTD SVG 1.1//EN"
       "http://www.w3.org/Graphics/SVG/1.1/DTD/svg11.dtd">
<svg version="1.1" xmlns="http://www.w3.org/2000/svg" xmlns:xlink="http://www.w3.org/1999/xlink" width="460.25" height="460.75">
 <g>
  <rect height="460.75" opacity="0" width="460.25" x="0" y="0"/>
  <path d="M460.25 78L460.25 383.25C460.25 434.75 434.25 460.75 381.75 460.75L78.5 460.75C26.25 460.75 0 435 0 383.25L0 78C0 26.25 26.25 0.5 78.5 0.5L381.75 0.5C434.25 0.5 460.25 26.5 460.25 78ZM300.5 131.75L230.25 201.5L160.5 132C156.5 128.25 152 126.25 146.25 126.25C134.75 126.25 125.75 135 125.75 146.75C125.75 152.25 127.75 157.25 131.75 161.25L201 230.5L131.75 300C127.75 303.75 125.75 309 125.75 314.5C125.75 326 134.75 335.25 146.25 335.25C152 335.25 157.25 333.25 161.25 329.25L230.25 259.75L299.5 329.25C303.25 333.25 308.75 335.25 314.25 335.25C326 335.25 335.25 326 335.25 314.5C335.25 308.75 333.25 303.5 329.25 299.75L259.75 230.5L329.5 161C333.75 156.5 335.5 152 335.5 146.25C335.5 134.75 326.25 125.75 314.75 125.75C309.5 125.75 304.75 127.5 300.5 131.75Z" fill="#ffffff" fill-opacity="0.85"/>
 </g>
</svg>
