<?xml version="1.0" encoding="UTF-8"?>
<!--Generator: Apple Native CoreSVG 232.5-->
<!DOCTYPE svg
PUBLIC "-//W3C//DTD SVG 1.1//EN"
       "http://www.w3.org/Graphics/SVG/1.1/DTD/svg11.dtd">
<svg version="1.1" xmlns="http://www.w3.org/2000/svg" xmlns:xlink="http://www.w3.org/1999/xlink" width="522.5" height="522.75">
 <g>
  <rect height="522.75" opacity="0" width="522.5" x="0" y="0"/>
  <path d="M238.25 522.5L284.25 522.5C297.25 522.5 306.75 514.75 309.5 502L322.5 447C332.25 443.75 341.75 440 350 436L398.25 465.5C409 472.25 421.25 471.25 430.25 462.25L462.5 430.25C471.5 421.25 472.75 408.25 465.5 397.5L436 349.75C440.25 341 444 332 446.75 323L502.25 309.75C515 307 522.5 297.5 522.5 284.5L522.5 239.25C522.5 226.5 515 217 502.25 214.25L447.25 201C444 190.75 440 181.5 436.5 173.75L466 125.25C473 114.5 472.25 102.25 463 93.25L430.25 61C421 52.5 410 51 399 57.25L350 87.5C342 83.25 332.75 79.5 322.5 76.25L309.5 20.5C306.75 7.75 297.25 0 284.25 0L238.25 0C225.25 0 215.75 7.75 212.75 20.5L199.75 75.75C190 79 180.5 82.75 172 87.25L123.5 57.25C112.5 51 101.25 52.25 92 61L59.5 93.25C50.25 102.25 49.25 114.5 56.5 125.25L85.75 173.75C82.5 181.5 78.5 190.75 75.25 201L20.25 214.25C7.5 217 0 226.5 0 239.25L0 284.5C0 297.5 7.5 307 20.25 309.75L75.75 323C78.5 332 82.25 341 86.25 349.75L57 397.5C49.5 408.25 51 421.25 60 430.25L92 462.25C101 471.25 113.5 472.25 124.25 465.5L172.25 436C180.75 440 190 443.75 199.75 447L212.75 502C215.75 514.75 225.25 522.5 238.25 522.5ZM261.25 349.5C212.75 349.5 173 309.5 173 261C173 212.75 212.75 173 261.25 173C309.75 173 349.5 212.75 349.5 261C349.5 309.5 309.75 349.5 261.25 349.5Z" fill="#ffffff" fill-opacity="0.85"/>
 </g>
</svg>
