<?xml version="1.0" encoding="UTF-8"?>
<!--Generator: Apple Native CoreSVG 232.5-->
<!DOCTYPE svg
PUBLIC "-//W3C//DTD SVG 1.1//EN"
       "http://www.w3.org/Graphics/SVG/1.1/DTD/svg11.dtd">
<svg version="1.1" xmlns="http://www.w3.org/2000/svg" xmlns:xlink="http://www.w3.org/1999/xlink" width="460.25" height="460.75">
 <g>
  <rect height="460.75" opacity="0" width="460.25" x="0" y="0"/>
  <path d="M460.25 78L460.25 383.25C460.25 434.75 434.25 460.75 381.75 460.75L78.5 460.75C26.25 460.75 0 435 0 383.25L0 78C0 26.25 26.25 0.5 78.5 0.5L381.75 0.5C434.25 0.5 460.25 26.5 460.25 78ZM222.75 88L173.25 138.5C167.25 144.75 167 156.25 173.25 162.25L223.25 212.25C226 215 230.5 217.25 234.5 217.25C244 217.25 251 210 251 200.75C251 196.25 249.25 192 246 189L221.25 164.25C223.75 163.75 227 163.75 230.25 163.75C274.5 163.75 309.75 199 309.75 243C309.75 287.25 274.5 322.75 230.25 322.75C186.25 322.75 151 287.25 151 243C151 233.25 143 225.5 133 225.5C123.5 225.5 115.5 233.25 115.5 243C115.5 306.5 166.5 358.5 230.25 358.5C294 358.5 345.25 306.5 345.25 242C345.25 179 293.25 129.25 235.25 129.25C233 129.25 230.25 129.5 228.5 129.75L246.5 111.25C249 108.25 251 104 251 99.25C251 90.25 244 82.75 234.5 82.75C230 82.75 225.75 84.75 222.75 88Z" fill="#ffffff" fill-opacity="0.85"/>
 </g>
</svg>
